<?xml version="1.0" encoding="UTF-8"?>
<svg width="16px" height="16px" viewBox="0 0 16 16" version="1.1" xmlns="http://www.w3.org/2000/svg" xmlns:xlink="http://www.w3.org/1999/xlink">
    <!-- Generator: Sketch 48.2 (47327) - http://www.bohemiancoding.com/sketch -->
    <title>Icons/Close</title>
    <desc>Created with Sketch.</desc>
    <defs>
        <path d="M8,6.65618023 L1.61921336,0.27539359 C1.25873536,-0.0850844053 0.651986744,-0.0901844204 0.280901162,0.280901162 C-0.0927715609,0.654573884 -0.0926502443,1.25116952 0.27539359,1.61921336 L6.65618023,8 L0.27539359,14.3807866 C-0.0850844053,14.7412646 -0.0901844204,15.3480133 0.280901162,15.7190988 C0.654573884,16.0927716 1.25116952,16.0926502 1.61921336,15.7246064 L8,9.34381977 L14.3807866,15.7246064 C14.7412646,16.0850844 15.3480133,16.0901844 15.7190988,15.7190988 C16.0927716,15.3454261 16.0926502,14.7488305 15.7246064,14.3807866 L9.34381977,8 L15.7246064,1.61921336 C16.0850844,1.25873536 16.0901844,0.651986744 15.7190988,0.280901162 C15.3454261,-0.0927715609 14.7488305,-0.0926502443 14.3807866,0.27539359 L8,6.65618023 Z" id="path-1"></path>
    </defs>
    <g id="Symbols" stroke="none" stroke-width="1" fill="none" fill-rule="evenodd">
        <g id="Icons/Close">
            <mask id="mask-2" fill="white">
                <use xlink:href="#path-1"></use>
            </mask>
            <use fill="#D8D8D8" xlink:href="#path-1"></use>
            <g id="↳Tint/Grey" mask="url(#mask-2)" fill="#D0D0D0">
                <rect id="Color" x="0" y="0" width="16" height="16"></rect>
            </g>
        </g>
    </g>
</svg>