<svg xmlns="http://www.w3.org/2000/svg" viewBox="0 0 47.5 47.5"><defs><clipPath id="a"><path d="M0 38h38V0H0v38z"/></clipPath></defs><g clip-path="url(#a)" transform="matrix(1.25 0 0 -1.25 0 47.5)"><path d="M36 19c0-9.39-7.61-17-17-17C9.612 2 2 9.61 2 19c0 9.388 7.612 17 17 17 9.39 0 17-7.612 17-17" fill="#ffcc4d"/><path d="M15 24.5c0-2.486-1.12-5.5-2.5-5.5S10 22.014 10 24.5c0 2.485 1.12 5.5 2.5 5.5s2.5-3.015 2.5-5.5M28 24.5c0-2.486-1.12-5.5-2.5-5.5S23 22.014 23 24.5c0 2.485 1.12 5.5 2.5 5.5s2.5-3.015 2.5-5.5M19 15c-3.623 0-6.027.422-9 1-.68.13-2 0-2-2 0-4 4.595-9 11-9 6.404 0 11 5 11 9 0 2-1.32 2.132-2 2-2.973-.578-5.377-1-9-1" fill="#664500"/><path d="M10 14s3-1 9-1 9 1 9 1-2-4-9-4-9 4-9 4" fill="#fff"/></g></svg>