<svg xmlns="http://www.w3.org/2000/svg" viewBox="0 0 47.5 47.5"><defs><clipPath id="a"><path d="M0 38h38V0H0v38z"/></clipPath></defs><g clip-path="url(#a)" transform="matrix(1.25 0 0 -1.25 0 47.5)"><path d="M36 19c0-9.39-7.61-17-17-17S2 9.61 2 19s7.61 17 17 17 17-7.61 17-17" fill="#ffcc4d"/><path d="M19 15.15c-2.966 0-4.935.347-7.37.82-.556.107-1.637 0-1.637-1.637 0-3.276 3.763-7.37 9.007-7.37s9.007 4.094 9.007 7.37c0 1.637-1.082 1.745-1.638 1.637-2.434-.473-4.403-.82-7.37-.82" fill="#664500"/><path d="M17.65 33.72c-.86 2.43-3.524 3.706-5.956 2.85-1.476-.522-2.52-1.712-2.928-3.106-1.19.83-2.75 1.1-4.224.58-2.43-.857-3.708-3.524-2.85-5.955.122-.346.284-.664.472-.96 1.95-3.58 7.588-6.1 11.002-6.13 2.636 2.167 5.446 7.664 4.717 11.677-.038.348-.113.698-.233 1.042M20.35 33.72c.86 2.43 3.525 3.706 5.956 2.85 1.477-.522 2.52-1.712 2.93-3.106 1.19.83 2.75 1.1 4.223.58 2.43-.857 3.706-3.524 2.85-5.955-.124-.346-.285-.664-.474-.96-1.95-3.58-7.588-6.1-11.002-6.13-2.636 2.167-5.445 7.664-4.716 11.677.038.348.113.698.232 1.042" fill="#e75a70"/></g></svg>