<svg xmlns="http://www.w3.org/2000/svg" viewBox="0 0 47.5 47.5"><defs><clipPath id="a"><path d="M0 38h38V0H0v38z"/></clipPath></defs><g clip-path="url(#a)" transform="matrix(1.25 0 0 -1.25 0 47.5)"><path d="M36 19c0-9.39-7.61-17-17-17S2 9.61 2 19s7.61 17 17 17 17-7.61 17-17" fill="#ffcc4d"/><path d="M16 20c0-1.657-.895-3-2-3-1.104 0-2 1.343-2 3s.896 3 2 3c1.105 0 2-1.343 2-3M26 20c0-1.657-.895-3-2-3-1.104 0-2 1.343-2 3s.896 3 2 3c1.105 0 2-1.343 2-3M24.485 8.12c-.012.045-1.146 4.38-5.485 4.38-4.34 0-5.475-4.335-5.485-4.38-.053-.212.043-.43.23-.543.19-.112.434-.086.597.06.01.007 1.014.863 4.658.863 3.59 0 4.617-.83 4.656-.863.095-.09.22-.137.344-.137.084 0 .17.02.246.064.196.112.294.34.24.557M30 25c-5.554 0-7.802 4.367-7.895 4.553-.247.494-.046 1.095.448 1.342.493.246 1.092.047 1.34-.444.074-.144 1.82-3.45 6.107-3.45.553 0 1-.448 1-1s-.447-1-1-1M8 25c-.552 0-1 .448-1 1s.448 1 1 1c5.083 0 5.996 3.12 6.033 3.253.145.528.692.848 1.22.71.53-.14.85-.674.717-1.206C15.92 29.563 14.704 25 8 25" fill="#664500"/></g></svg>