<?xml version="1.0" encoding="UTF-8"?>
<svg width="16px" height="16px" viewBox="0 0 16 16" version="1.1" xmlns="http://www.w3.org/2000/svg" xmlns:xlink="http://www.w3.org/1999/xlink">
    <!-- Generator: Sketch 48.2 (47327) - http://www.bohemiancoding.com/sketch -->
    <title>Icons/Calendar</title>
    <desc>Created with Sketch.</desc>
    <defs>
        <path d="M14,2 L14.9991283,2 C15.5518945,2 16,2.44994876 16,3.00684547 L16,14.9931545 C16,15.5492199 15.5553691,16 14.9991283,16 L1.00087166,16 C0.448105505,16 0,15.5500512 0,14.9931545 L0,3.00684547 C0,2.45078007 0.444630861,2 1.00087166,2 L2,2 L2,1.0093689 C2,0.451909848 2.44386482,0 3,0 C3.55228475,0 4,0.443353176 4,1.0093689 L4,2 L12,2 L12,1.0093689 C12,0.451909848 12.4438648,0 13,0 C13.5522847,0 14,0.443353176 14,1.0093689 L14,2 Z M2,7 L2,14 L14,14 L14,7 L2,7 Z" id="path-1"></path>
    </defs>
    <g id="Symbols" stroke="none" stroke-width="1" fill="none" fill-rule="evenodd">
        <g id="Icons/Calendar">
            <mask id="mask-2" fill="white">
                <use xlink:href="#path-1"></use>
            </mask>
            <use id="Combined-Shape" fill="#D8D8D8" xlink:href="#path-1"></use>
            <g id="↳Tint/Grey" mask="url(#mask-2)" fill="#D0D0D0">
                <rect id="Color" x="0" y="0" width="16" height="16"></rect>
            </g>
        </g>
    </g>
</svg>