<?xml version="1.0" encoding="UTF-8"?>
<svg width="32px" height="32px" viewBox="0 0 32 32" version="1.1" xmlns="http://www.w3.org/2000/svg" xmlns:xlink="http://www.w3.org/1999/xlink">
    <!-- Generator: Sketch 48.2 (47327) - http://www.bohemiancoding.com/sketch -->
    <title>Artboard Copy</title>
    <desc>Created with Sketch.</desc>
    <defs></defs>
    <g id="Page-3" stroke="none" stroke-width="1" fill="none" fill-rule="evenodd">
        <g id="Artboard-Copy" fill="#000000" fill-rule="nonzero">
            <g id="noun_423490" transform="translate(3.000000, 3.000000)">
                <path d="M22.6777778,0 L3.32222222,0 C1.50222222,0 0,1.50222222 0,3.32222222 L0,22.5622222 C0,24.3822222 1.50222222,25.8844444 3.32222222,25.8844444 L22.6777778,25.8844444 C24.4977778,25.8844444 26,24.3822222 26,22.5622222 L26,3.32222222 C26,1.50222222 24.4977778,0 22.6777778,0 Z M3.32222222,1.44444444 L22.6777778,1.44444444 C23.7177778,1.44444444 24.5555556,2.28222222 24.5555556,3.32222222 L24.5555556,6.73111111 L1.44444444,6.73111111 L1.44444444,3.32222222 C1.44444444,2.28222222 2.28222222,1.44444444 3.32222222,1.44444444 Z M22.6777778,24.44 L3.32222222,24.44 C2.28222222,24.44 1.44444444,23.6022222 1.44444444,22.5622222 L1.44444444,8.17555556 L24.5555556,8.17555556 L24.5555556,22.5622222 C24.5555556,23.6022222 23.7177778,24.44 22.6777778,24.44 Z" id="Shape"></path>
                <circle id="Oval" cx="6.21111111" cy="13.6066667" r="1.44444444"></circle>
                <circle id="Oval" cx="13" cy="13.6066667" r="1.44444444"></circle>
                <circle id="Oval" cx="19.7888889" cy="13.6066667" r="1.44444444"></circle>
                <circle id="Oval" cx="6.21111111" cy="19.4711111" r="1.44444444"></circle>
                <circle id="Oval" cx="13" cy="19.4711111" r="1.44444444"></circle>
                <circle id="Oval" cx="19.7888889" cy="19.4711111" r="1.44444444"></circle>
            </g>
        </g>
    </g>
</svg>