<?xml version="1.0" encoding="UTF-8"?>
<svg width="16px" height="16px" viewBox="0 0 16 16" version="1.1" xmlns="http://www.w3.org/2000/svg" xmlns:xlink="http://www.w3.org/1999/xlink">
    <!-- Generator: Sketch 48.2 (47327) - http://www.bohemiancoding.com/sketch -->
    <title>Icons/Feed</title>
    <desc>Created with Sketch.</desc>
    <defs>
        <path d="M0,2 C0,1.44771525 0.442660332,1 0.998956561,1 L2.00104344,1 C2.55275191,1 3,1.44386482 3,2 C3,2.55228475 2.55733967,3 2.00104344,3 L0.998956561,3 C0.447248087,3 0,2.55613518 0,2 Z M13,8 C13,7.44771525 13.4426603,7 13.9989566,7 L15.0010434,7 C15.5527519,7 16,7.44386482 16,8 C16,8.55228475 15.5573397,9 15.0010434,9 L13.9989566,9 C13.4472481,9 13,8.55613518 13,8 Z M5,2 C5,1.44771525 5.44483697,1 5.9955775,1 L15.0044225,1 C15.5542648,1 16,1.44386482 16,2 C16,2.55228475 15.555163,3 15.0044225,3 L5.9955775,3 C5.44573523,3 5,2.55613518 5,2 Z M0,14 C0,13.4477153 0.437881351,13 1.00292933,13 L5.99707067,13 C6.55097324,13 7,13.4438648 7,14 C7,14.5522847 6.56211865,15 5.99707067,15 L1.00292933,15 C0.449026756,15 0,14.5561352 0,14 Z M0,8 C0,7.44771525 0.444836974,7 0.995577499,7 L10.0044225,7 C10.5542648,7 11,7.44386482 11,8 C11,8.55228475 10.555163,9 10.0044225,9 L0.995577499,9 C0.445735229,9 0,8.55613518 0,8 Z" id="path-1"></path>
    </defs>
    <g id="Symbols" stroke="none" stroke-width="1" fill="none" fill-rule="evenodd">
        <g id="Icons/Feed">
            <mask id="mask-2" fill="white">
                <use xlink:href="#path-1"></use>
            </mask>
            <use id="Combined-Shape" fill="#D8D8D8" xlink:href="#path-1"></use>
            <g id="↳Tint/Grey" mask="url(#mask-2)" fill="#D0D0D0">
                <rect id="Color" x="0" y="0" width="16" height="16"></rect>
            </g>
        </g>
    </g>
</svg>