<?xml version="1.0" encoding="UTF-8"?>
<svg width="16px" height="16px" viewBox="0 0 16 16" version="1.1" xmlns="http://www.w3.org/2000/svg" xmlns:xlink="http://www.w3.org/1999/xlink">
    <!-- Generator: Sketch 48.2 (47327) - http://www.bohemiancoding.com/sketch -->
    <title>Icons/Lock</title>
    <desc>Created with Sketch.</desc>
    <defs>
        <path d="M13,16 L3,16 C1.8954305,16 1,15.1045695 1,14 L1,6 C1,4.8954305 1.8954305,4 3,4 L4,4 C4,1.790861 5.790861,0 8,0 C10.209139,0 12,1.790861 12,4 L13,4 C14.1045695,4 15,4.8954305 15,6 L15,14 C15,15.1045695 14.1045695,16 13,16 L13,16 L13,16 Z M8,2 C6.8954305,2 6,2.8954305 6,4 L10,4 C10,2.8954305 9.1045695,2 8,2 L8,2 L8,2 Z M8,8 C9.1045695,8 10,8.8954305 10,10 C10,11.1045695 9.1045695,12 8,12 C6.8954305,12 6,11.1045695 6,10 C6,8.8954305 6.8954305,8 8,8 L8,8 L8,8 Z" id="path-1"></path>
    </defs>
    <g id="Symbols" stroke="none" stroke-width="1" fill="none" fill-rule="evenodd">
        <g id="Icons/Lock">
            <mask id="mask-2" fill="white">
                <use xlink:href="#path-1"></use>
            </mask>
            <use id="Lock-Filled-Icon" fill="#393B43" xlink:href="#path-1"></use>
            <g id="↳Tint/Grey" mask="url(#mask-2)" fill="#D0D0D0">
                <rect id="Color" x="0" y="0" width="16" height="16"></rect>
            </g>
        </g>
    </g>
</svg>