<?xml version="1.0" encoding="UTF-8"?>
<svg width="16px" height="16px" viewBox="0 0 16 16" version="1.1" xmlns="http://www.w3.org/2000/svg" xmlns:xlink="http://www.w3.org/1999/xlink">
    <!-- Generator: Sketch 48.2 (47327) - http://www.bohemiancoding.com/sketch -->
    <title>Icons/Log Out</title>
    <desc>Created with Sketch.</desc>
    <defs>
        <path d="M12.7533767,8.99925 L5.00050025,8.99925 C4.44822411,8.99925 4,8.55125 4,7.99925 C4,7.44725 4.44822411,6.99925 5.00050025,6.99925 L12.7513757,6.99925 L9.27213607,3.70725 C8.87693847,3.31625 8.87693847,2.68325 9.27213607,2.29325 C9.66833417,1.90225 10.3096548,1.90225 10.7048524,2.29325 L15.5557779,6.94025 C15.841921,7.22225 16,7.59925 16,8.00025 C16,8.40225 15.841921,8.77725 15.5557779,9.06125 L10.7048524,13.70825 C10.3096548,14.09925 9.66833417,14.09925 9.27213607,13.70825 C8.87693847,13.31725 8.87693847,12.68525 9.27213607,12.29425 L12.7533767,8.99925 Z M1,2.00684547 C1,1.45078007 1.44386482,1 2,1 C2.55228475,1 3,1.44994876 3,2.00684547 L3,13.9931545 C3,14.5492199 2.55613518,15 2,15 C1.44771525,15 1,14.5500512 1,13.9931545 L1,2.00684547 Z" id="path-1"></path>
    </defs>
    <g id="Symbols" stroke="none" stroke-width="1" fill="none" fill-rule="evenodd">
        <g id="Icons/Log-Out">
            <mask id="mask-2" fill="white">
                <use xlink:href="#path-1"></use>
            </mask>
            <use id="Combined-Shape" fill="#000000" xlink:href="#path-1"></use>
            <g id="↳Tint/Grey" mask="url(#mask-2)" fill="#D0D0D0">
                <rect id="Color" x="0" y="0" width="16" height="16"></rect>
            </g>
        </g>
    </g>
</svg>