<?xml version="1.0" encoding="UTF-8"?>
<svg width="16px" height="12px" viewBox="0 0 16 12" version="1.1" xmlns="http://www.w3.org/2000/svg" xmlns:xlink="http://www.w3.org/1999/xlink">
    <!-- Generator: Sketch 48.2 (47327) - http://www.bohemiancoding.com/sketch -->
    <title>Icons/Menu</title>
    <desc>Created with Sketch.</desc>
    <defs>
        <path d="M9,12 C9.55228475,12 10,11.5522847 10,11 C10,10.4477153 9.55228475,10 9,10 L1,10 C0.44771525,10 0,10.4477153 0,11 C0,11.5522847 0.44771525,12 1,12 L9,12 Z M15,7 C15.5522847,7 16,6.55228475 16,6 C16,5.44771525 15.5522847,5 15,5 L1,5 C0.44771525,5 1.77635684e-15,5.44771525 1.77635684e-15,6 C1.77635684e-15,6.55228475 0.44771525,7 1,7 L15,7 Z M13,2 C13.5522847,2 14,1.55228475 14,1 C14,0.44771525 13.5522847,0 13,0 L1,0 C0.44771525,0 0,0.44771525 0,1 C0,1.55228475 0.44771525,2 1,2 L13,2 Z" id="path-1"></path>
    </defs>
    <g id="Navigation-Bar/1" stroke="none" stroke-width="1" fill="none" fill-rule="evenodd" transform="translate(-30.000000, -29.000000)">
        <g id="Icons/Menu" transform="translate(30.000000, 27.000000)">
            <g id="Group-2" transform="translate(0.000000, 2.000000)">
                <mask id="mask-2" fill="white">
                    <use xlink:href="#path-1"></use>
                </mask>
                <use id="Mask" fill="#000000" fill-rule="nonzero" xlink:href="#path-1"></use>
                <g id="↳Tint/Light" mask="url(#mask-2)" fill="#FFFFFF">
                    <g transform="translate(-292.000000, -294.000000)" id="Color">
                        <rect x="0" y="0" width="600" height="600"></rect>
                    </g>
                </g>
            </g>
        </g>
    </g>
</svg>