<?xml version="1.0" encoding="UTF-8"?>
<svg width="16px" height="16px" viewBox="0 0 16 16" version="1.1" xmlns="http://www.w3.org/2000/svg" xmlns:xlink="http://www.w3.org/1999/xlink">
    <!-- Generator: Sketch 48.2 (47327) - http://www.bohemiancoding.com/sketch -->
    <title>Icons/Pencil</title>
    <desc>Created with Sketch.</desc>
    <defs>
        <path d="M15.0911666,5.30551883 L14.653353,5.74246106 L10.2552248,1.34904201 L10.6930385,0.912099787 C11.477617,0.126219275 12.6217369,-0.181273773 13.694419,0.105450312 C14.7671012,0.392174398 15.6053798,1.2295554 15.8934832,2.30215996 C16.1815867,3.37476453 15.8757454,4.51963848 15.0911666,5.30551883 L15.0911666,5.30551883 Z M13.2409541,7.15527424 L10.3231959,10.0718886 L6.38887035,14.0053684 C5.89129001,14.4618819 5.29607925,14.7987312 4.648611,14.9902382 L0.804247169,15.9511111 C0.588017766,16.0466759 0.335308134,15.9995404 0.168041302,15.8324458 C0.000774469264,15.6653512 -0.0466816403,15.4126301 0.0485687864,15.196211 L1.01015953,11.3527192 C1.2010535,10.7048249 1.53787169,10.1093198 1.99474049,9.61194938 L5.92906604,5.67846952 L8.84682424,2.76185519 L13.2409541,7.15527424 Z" id="path-1"></path>
    </defs>
    <g id="Symbols" stroke="none" stroke-width="1" fill="none" fill-rule="evenodd">
        <g id="Icons/Pencil">
            <g id="↳Tint/Grey">
                <mask id="mask-2" fill="white">
                    <use xlink:href="#path-1"></use>
                </mask>
                <use id="Mask" fill="#000000" xlink:href="#path-1"></use>
                <g mask="url(#mask-2)" fill="#D0D0D0" id="Color">
                    <g transform="translate(-292.000000, -292.000000)">
                        <rect x="0" y="0" width="600" height="600"></rect>
                    </g>
                </g>
            </g>
        </g>
    </g>
</svg>