<!-- Generated by IcoMoon.io -->
<svg version="1.1" xmlns="http://www.w3.org/2000/svg" width="24" height="24" viewBox="0 0 24 24">
<title>bar-chart-2</title>
<path d="M14 2h-4c-0.6 0-1 0.4-1 1v18c0 0.6 0.4 1 1 1h4c0.6 0 1-0.4 1-1v-18c0-0.6-0.4-1-1-1zM13 20h-2v-16h2v16z"></path>
<path d="M22 7h-4c-0.6 0-1 0.4-1 1v13c0 0.6 0.4 1 1 1h4c0.6 0 1-0.4 1-1v-13c0-0.6-0.4-1-1-1zM21 20h-2v-11h2v11z"></path>
<path d="M6 12h-4c-0.6 0-1 0.4-1 1v8c0 0.6 0.4 1 1 1h4c0.6 0 1-0.4 1-1v-8c0-0.6-0.4-1-1-1zM5 20h-2v-6h2v6z"></path>
</svg>
